HIERARCHY
ROOT Hips
{
	OFFSET 0.000000 0.000000 0.000000
	CHANNELS 6 Xposition Yposition Zposition Zrotation Yrotation Xrotation 
	JOINT LHipJoint
	{
		OFFSET 0.000000 0.000000 0.000000
		CHANNELS 3 Zrotation Yrotation Xrotation
		JOINT LeftUpLeg
		{
			OFFSET 1.363060 -1.794630 0.839290
			CHANNELS 3 Zrotation Yrotation Xrotation
			JOINT LeftLeg
			{
				OFFSET 2.448110 -6.726130 0.000000
				CHANNELS 3 Zrotation Yrotation Xrotation
				JOINT LeftFoot
				{
					OFFSET 2.562200 -7.039590 0.000000
					CHANNELS 3 Zrotation Yrotation Xrotation
					JOINT LeftToeBase
					{
						OFFSET 0.157640 -0.433110 2.322550
						CHANNELS 3 Zrotation Yrotation Xrotation
						End Site
						{
							OFFSET 0.000000 0.000000 0.000000
						}
					}
				}
			}
		}
	}
	JOINT RHipJoint
	{
		OFFSET 0.000000 0.000000 0.000000
		CHANNELS 3 Zrotation Yrotation Xrotation
		JOINT RightUpLeg
		{
			OFFSET -1.305520 -1.794630 0.839290
			CHANNELS 3 Zrotation Yrotation Xrotation
			JOINT RightLeg
			{
				OFFSET -2.542530 -6.985550 0.000000
				CHANNELS 3 Zrotation Yrotation Xrotation
				JOINT RightFoot
				{
					OFFSET -2.568260 -7.056230 0.000000
					CHANNELS 3 Zrotation Yrotation Xrotation
					JOINT RightToeBase
					{
						OFFSET -0.164730 -0.452590 2.363150
						CHANNELS 3 Zrotation Yrotation Xrotation
						End Site
						{
							OFFSET 0.000000 0.000000 0.000000
						}
					}
				}
			}
		}
	}
	JOINT LowerBack
	{
		OFFSET 0.000000 0.000000 0.000000
		CHANNELS 3 Zrotation Yrotation Xrotation
		JOINT Spine
		{
			OFFSET 0.028270 2.035590 -0.193380
			CHANNELS 3 Zrotation Yrotation Xrotation
			JOINT Spine1
			{
				OFFSET 0.056720 2.048850 -0.042750
				CHANNELS 3 Zrotation Yrotation Xrotation
				JOINT Neck
				{
					OFFSET 0.000000 0.000000 0.000000
					CHANNELS 3 Zrotation Yrotation Xrotation
					JOINT Neck1
					{
						OFFSET -0.054170 1.746240 0.172020
						CHANNELS 3 Zrotation Yrotation Xrotation
						JOINT Head
						{
							OFFSET 0.104070 1.761360 -0.123970
							CHANNELS 3 Zrotation Yrotation Xrotation
							End Site
							{
								OFFSET 0.000000 0.000000 0.000000
							}
						}
					}
				}
				JOINT LeftShoulder
				{
					OFFSET 0.000000 0.000000 0.000000
					CHANNELS 3 Zrotation Yrotation Xrotation
					JOINT LeftArm
					{
						OFFSET 3.362410 1.200890 -0.311210
						CHANNELS 3 Zrotation Yrotation Xrotation
						JOINT LeftForeArm
						{
							OFFSET 4.983000 -0.000000 -0.000000
							CHANNELS 3 Zrotation Yrotation Xrotation
							JOINT LeftHand
							{
								OFFSET 3.483560 -0.000000 -0.000000
								CHANNELS 3 Zrotation Yrotation Xrotation
								JOINT LeftFingerBase
								{
									OFFSET 0.000000 0.000000 0.000000
									CHANNELS 3 Zrotation Yrotation Xrotation
									JOINT LeftHandIndex1
									{
										OFFSET 0.715260 -0.000000 -0.000000
										CHANNELS 3 Zrotation Yrotation Xrotation
										End Site
										{
											OFFSET 0.000000 0.000000 0.000000
										}
									}
								}
								JOINT LThumb
								{
									OFFSET 0.000000 0.000000 0.000000
									CHANNELS 3 Zrotation Yrotation Xrotation
									End Site
									{
										OFFSET 0.000000 0.000000 0.000000
									}
								}
							}
						}
					}
				}
				JOINT RightShoulder
				{
					OFFSET 0.000000 0.000000 0.000000
					CHANNELS 3 Zrotation Yrotation Xrotation
					JOINT RightArm
					{
						OFFSET -3.136600 1.374050 -0.404650
						CHANNELS 3 Zrotation Yrotation Xrotation
						JOINT RightForeArm
						{
							OFFSET -5.241900 -0.000000 -0.000000
							CHANNELS 3 Zrotation Yrotation Xrotation
							JOINT RightHand
							{
								OFFSET -3.444170 -0.000000 -0.000000
								CHANNELS 3 Zrotation Yrotation Xrotation
								JOINT RightFingerBase
								{
									OFFSET 0.000000 0.000000 0.000000
									CHANNELS 3 Zrotation Yrotation Xrotation
									JOINT RightHandIndex1
									{
										OFFSET -0.622530 -0.000000 -0.000000
										CHANNELS 3 Zrotation Yrotation Xrotation
										End Site
										{
											OFFSET 0.000000 0.000000 0.000000
										}
									}
								}
								JOINT RThumb
								{
									OFFSET 0.000000 0.000000 0.000000
									CHANNELS 3 Zrotation Yrotation Xrotation
									End Site
									{
										OFFSET 0.000000 0.000000 0.000000
									}
								}
							}
						}
					}
				}
			}
		}
	}
}
MOTION
Frames: 6
Frame Time: 0.008333
-0.533121 17.585000 -0.454824 -178.827933 -7.872662 -173.291532 -0.115518 17.807328 0.629857 -16.550937 -4.794170 -12.885079 0.039488 -1.636904 22.663811 24.956394 -12.916142 -5.669761 -5.627081 0.683800 -10.729929 0.878653 -20.989788 2.171063 20.722445 3.047214 -9.590415 -2.678865 0.354219 18.357289 -26.988191 9.117903 -12.561580 5.362903 -3.492121 -6.980337 -0.738053 -1.912682 2.900737 -9.279382 -2.024629 16.616372 9.677807 11.778143 -29.277576 1.532759 -4.348592 -15.433604 3.541188 -4.952769 3.885937 -2.659338 -1.822720 -11.945830 21.429365 38.694061 -8.006728 -47.043464 -39.138442 19.121255 3.837620 -8.092857 12.054284 -0.391181 1.178599 2.151905 -0.976479 8.672017 -0.000000 0.000000 0.000000 0.000000 0.000000 0.000000 0.000000 -10.813075 -28.186018 0.915427 11.349936 4.818105 16.417125 -7.464791 29.610570 -3.174802 -2.722017 -10.498839 -1.218322 -2.784382 -12.596019 0.000000 0.000000 0.000000 0.000000 0.000000 0.000000 0.000000 
-0.532782 17.584700 -0.455611 -178.824133 -7.860404 -173.289041 -0.114591 17.802949 0.628138 -16.545842 -4.794179 -12.883293 0.041503 -1.631309 22.666010 24.955805 -12.906891 -5.680825 -5.623220 0.684474 -10.721824 0.880304 -20.990899 2.169505 20.725529 3.045190 -9.589834 -2.676880 0.358159 18.358898 -26.986620 9.129294 -12.565270 5.363708 -3.492017 -6.977924 -0.744942 -1.910039 2.907524 -9.278436 -2.021775 16.614761 9.681869 11.781875 -29.281611 1.532684 -4.356615 -15.430554 3.533967 -4.959766 3.887452 -2.661259 -1.819932 -11.946281 21.431092 38.696078 -8.002812 -47.040394 -39.144712 19.132203 3.837938 -8.086185 12.064476 -0.388000 1.178268 2.159708 -0.974584 8.672307 -0.000000 0.000000 0.000000 0.000000 0.000000 0.000000 0.000000 -10.809587 -28.178467 0.903114 11.349589 4.807914 16.390441 -7.453734 29.616214 -3.199928 -2.718594 -10.483132 -1.237205 -2.785271 -12.594985 0.000000 0.000000 0.000000 0.000000 0.000000 0.000000 0.000000 
-0.532586 17.584550 -0.456399 -178.822293 -7.850546 -173.287404 -0.114897 17.799371 0.625652 -16.544442 -4.794364 -12.880900 0.045515 -1.625120 22.669766 24.957523 -12.894486 -5.682581 -5.623116 0.684621 -10.723913 0.880927 -20.989523 2.168488 20.729006 3.047936 -9.588430 -2.680210 0.359052 18.361638 -27.001666 9.128917 -12.566807 5.359688 -3.489166 -6.978402 -0.747796 -1.908262 2.912926 -9.276973 -2.019838 16.616685 9.679315 11.781908 -29.288063 1.532162 -4.360399 -15.428912 3.529661 -4.963028 3.895370 -2.662285 -1.817999 -11.943427 21.425954 38.698468 -8.000726 -47.028890 -39.153964 19.145784 3.835990 -8.084405 12.065622 -0.390558 1.191833 2.159721 -0.977524 8.674730 -0.000000 0.000000 0.000000 0.000000 0.000000 0.000000 0.000000 -10.806558 -28.176301 0.892624 11.355516 4.809602 16.378865 -7.451618 29.613486 -3.213811 -2.724707 -10.486357 -1.244489 -2.793567 -12.596351 0.000000 0.000000 0.000000 0.000000 0.000000 0.000000 0.000000 
-0.532277 17.584550 -0.457259 -178.819801 -7.835903 -173.284194 -0.114019 17.795180 0.624908 -16.540947 -4.793639 -12.878236 0.045986 -1.621904 22.664714 24.945279 -12.883943 -5.677544 -5.627292 0.687217 -10.727130 0.882324 -20.987558 2.167052 20.731582 3.049663 -9.588069 -2.679970 0.361993 18.363531 -26.998726 9.135056 -12.566311 5.360256 -3.489914 -6.975437 -0.753157 -1.907695 2.918474 -9.279027 -2.019023 16.610782 9.685212 11.785486 -29.285382 1.530220 -4.360133 -15.426349 3.528303 -4.962710 3.903369 -2.662407 -1.817031 -11.939798 21.431528 38.698758 -7.992530 -47.026256 -39.152091 19.160718 3.835736 -8.077699 12.080786 -0.384109 1.181475 2.172367 -0.972911 8.673058 -0.000000 0.000000 0.000000 0.000000 0.000000 0.000000 0.000000 -10.804869 -28.173829 0.882483 11.360968 4.821540 16.375683 -7.444850 29.611057 -3.223226 -2.728276 -10.482663 -1.250969 -2.798377 -12.595618 0.000000 0.000000 0.000000 0.000000 0.000000 0.000000 0.000000 
-0.531853 17.584700 -0.458339 -178.816326 -7.820890 -173.283610 -0.113285 17.794780 0.625569 -16.536169 -4.791682 -12.877902 0.046486 -1.617225 22.666197 24.945490 -12.876579 -5.676353 -5.625528 0.687587 -10.723805 0.883139 -20.987611 2.165126 20.736356 3.046589 -9.583173 -2.680450 0.364617 18.361766 -27.012364 9.140485 -12.567089 5.356506 -3.487649 -6.973667 -0.759682 -1.907537 2.920846 -9.276976 -2.018110 16.614876 9.687485 11.786275 -29.293255 1.528252 -4.357087 -15.423160 3.528599 -4.959681 3.916973 -2.662042 -1.816225 -11.934294 21.427143 38.706906 -7.987079 -47.016319 -39.161954 19.184992 3.831530 -8.065362 12.091186 -0.384408 1.190145 2.178609 -0.974525 8.675039 -0.000000 0.000000 0.000000 0.000000 0.000000 0.000000 0.000000 -10.797355 -28.183830 0.868073 11.361026 4.855669 16.395006 -7.436071 29.612900 -3.226593 -2.732821 -10.493509 -1.253916 -2.802639 -12.597191 0.000000 0.000000 0.000000 0.000000 0.000000 0.000000 0.000000 
-0.531608 17.584850 -0.459291 -178.814366 -7.812035 -173.280908 -0.113057 17.791788 0.624040 -16.533408 -4.787831 -12.873830 0.046489 -1.613866 22.660198 24.945504 -12.868080 -5.672686 -5.625230 0.687787 -10.723760 0.883366 -20.984714 2.165222 20.738692 3.047441 -9.579108 -2.678471 0.368238 18.356227 -27.008508 9.142120 -12.563276 5.356626 -3.489186 -6.968752 -0.762247 -1.908751 2.924796 -9.277597 -2.018964 16.610455 9.685715 11.787639 -29.294153 1.527761 -4.357773 -15.420226 3.528623 -4.960657 3.928489 -2.662099 -1.817164 -11.928885 21.426064 38.707939 -7.986566 -47.014631 -39.166297 19.190131 3.830860 -8.059146 12.094149 -0.380641 1.179580 2.182502 -0.971198 8.673718 -0.000000 0.000000 0.000000 0.000000 0.000000 0.000000 0.000000 -10.797658 -28.180902 0.861213 11.380852 4.862726 16.390569 -7.438030 29.616659 -3.229669 -2.738320 -10.496419 -1.255483 -2.808911 -12.596281 0.000000 0.000000 0.000000 0.000000 0.000000 0.000000 0.000000 
